<svg version="1.1" xmlns="http://www.w3.org/2000/svg" x="0px" y="0px" viewBox="0 0 391.5 52.7" style="enable-background:new 0 0 391.5 52.7;" xml:space="preserve">
<polygon points="35.8,24.6 4.8,24.6 4.8,0.8 0,0.8 0,51.8 4.8,51.8 4.8,29.1 35.8,29.1 35.8,51.8 40.6,51.8 40.6,0.8 35.8,0.8 "></polygon>
  <polygon points="55.2,28.3 84.5,28.3 84.5,23.9 55.2,23.9 55.2,5.4 85.9,5.4 85.9,0.8 50.4,0.8 50.4,51.8 86.8,51.8 86.8,47.1
	55.2,47.1 "></polygon>
  <path d="M129.4,28c2.8-2.8,4.3-6.8,4.3-11.2c-0.1-7.7-5.4-16.1-16.9-16.1H94.2v51H99v-19h13l17.2,18.8l0.2,0.2h6.4L118,32.6
	C122.7,32.4,126.6,30.8,129.4,28z M99,5.3h17.7c3.5,0,6.5,1.1,8.6,3.3c2.1,2.1,3.2,5.1,3.2,8.2c-0.1,7.4-4.4,11.5-12.2,11.5H99V5.3z
	"></path>
  <path d="M163.9,0c-17.8,0-25.7,13.2-25.7,26.2c0,12.7,8,26.4,25.7,26.4c17.6,0,25.7-13.6,25.7-26.3c0-7.7-2.6-14.5-7.3-19.3
	C177.7,2.4,171.4,0,163.9,0z M163.9,48.1c-14.3,0-20.9-11.3-21-21.8c0-6.4,2.1-12.2,6-16.1c3.7-3.7,8.9-5.7,15-5.7
	c14.5,0,21.1,10.9,21.1,21.8C185,36.8,178.4,48.1,163.9,48.1z"></path>
  <polygon points="221.9,0.8 217.1,0.8 217.1,51.8 250.1,51.8 250.1,47.2 221.9,47.2 "></polygon>
  <path d="M278.5,0.8h-4.8l-22.9,51h5.2l5.4-12.3h29.3l5.5,12.3h5.2L278.7,1.1L278.5,0.8z M288.8,35h-25.5l12.7-28.8L288.8,35z"></path>
  <path d="M336.5,25.6c4.5-1.9,7.2-5.9,7.2-10.7c0-10.4-9.1-14.1-16.9-14.1h-21v51h21c5.6,0,18.6-1.3,18.6-13.6
	C345.4,32.5,341.9,27.6,336.5,25.6z M310.5,28h16.7c6.4,0,13.3,2.7,13.4,10.1c0,7.4-7.6,9-13.9,9h-16.2V28z M327.2,23.5h-16.7V5
	h16.2c6.1,0,12.3,3.1,12.3,9.9C339.1,22,332.6,23.5,327.2,23.5z"></path>
  <path d="M372,23.4l-0.6-0.1c-9-1.7-14.9-3.2-14.9-9c0-9.4,13.2-9.7,14.7-9.7c5.6,0.1,11.3,0.9,14.8,6.6l0.2,0.4l4-2.3l-0.3-0.4
	c-4.8-7.2-11-8.7-18.7-8.7c-6.7,0-12.8,2-16.1,5.5c-2.3,2.4-3.5,5.4-3.4,8.9c0,9.6,9.6,11.5,18.9,13.3c7.9,1.5,16.1,3.1,16.1,10.3
	c0,9.1-10.8,10.1-15.5,10.1c-6.1,0-13.7-3-16.7-8.8l-0.2-0.4l-4.3,2.1l0.2,0.4c4.1,8.2,13.5,11.1,20.9,11.1c4.7,0,20.2-1,20.3-14.5
	C391.5,27.1,381.6,25.2,372,23.4z"></path>
</svg>
